:SAMPLES-PER-SECOND 30
:FULLY-SPECIFIED
:DEGREES
466
root  0.250374 39.9902 -1.12386 -1.30157 3.48968 3.22276
RightUpLeg  -2.62515 -9.73286 -9.2534
RightLeg  8.00349 -13.2138 -1.95498
RightFoot  0.806998 -0.704627 5.62426
RightToes  1.74624e-010 -3.18055e-015 -2.98177e-016
Spine  -6.56193 2.08858 2.55821
Spine1  9.36848 3.88056 -7.53259
HEad  -4.34774 5.54327 -3.4704
LeftShoulder1  -3.88251e-019 9.70628e-020 -3.87848e-018
LeftArm  -64.9697 71.945 -73.4942
LeftForeArm  -51.5406 -41.3779 7.50329
LeftHand  -0.289399 0.0786793 6.92205
RightShoulder  8.01841 10.7431 37.4977
RightArm  -3.46537 -42.5778 9.31124
RightForeArm  -36.0645 34.9328 -17.349
RightHand  -0.457771 -1.66581 -13.6879
LeftUpLeg  -1.06486 -5.22192 -8.03296
LeftLeg  5.31777 11.4665 3.59639
LeftFoot  -2.9937 -0.235554 2.57223
LeftToes  7.37594e-011 2.64622e-011 -6.25182e-011
467
root  0.386074 39.967 -1.13197 -1.17754 4.25244 3.51008
RightUpLeg  -2.7584 -10.6153 -9.87054
RightLeg  8.48078 -12.9956 -2.21075
RightFoot  0.735934 -0.739281 5.93827
RightToes  1.74624e-010 -3.18055e-015 -2.98177e-016
Spine  -6.45384 2.09322 2.94447
Spine1  8.21466 4.02286 -8.56056
HEad  -2.41697 5.85695 -3.88546
LeftShoulder1  -3.88251e-019 9.70628e-020 -3.87848e-018
LeftArm  -62.0827 70.959 -65.3285
LeftForeArm  -56.9439 -46.0042 8.91357
LeftHand  -0.406645 0.232048 9.96327
RightShoulder  7.42503 10.3903 35.3199
RightArm  -5.96103 -40.5937 8.17293
RightForeArm  -38.0366 38.6879 -19.7472
RightHand  -0.693985 -0.829259 -17.1132
LeftUpLeg  -1.22084 -5.51264 -8.54986
LeftLeg  5.37319 11.0582 3.51732
LeftFoot  -3.08429 -0.255075 2.81819
LeftToes  7.37594e-011 2.64622e-011 -6.25182e-011
468
root  0.522275 39.9443 -1.14085 -0.989996 4.97972 3.83021
RightUpLeg  -2.95335 -11.4689 -10.4826
RightLeg  8.91946 -12.7947 -2.48906
RightFoot  0.695964 -0.774808 6.24642
RightToes  1.74624e-010 -3.18055e-015 -2.98177e-016
Spine  -6.47356 2.15359 3.25938
Spine1  7.05902 4.19057 -9.52087
HEad  -0.0599352 6.42834 -4.27834
LeftShoulder1  -3.88251e-019 9.70628e-020 -3.87848e-018
LeftArm  -57.9632 69.2662 -56.3041
LeftForeArm  -61.1781 -50.436 10.5583
LeftHand  -0.587266 0.0240933 13.7743
RightShoulder  6.73662 9.9415 32.729
RightArm  -8.74361 -37.687 7.24975
RightForeArm  -41.1632 42.6522 -22.5664
RightHand  -1.01738 0.341889 -20.0891
LeftUpLeg  -1.39753 -5.83761 -9.09987
LeftLeg  5.37385 10.7246 3.41844
LeftFoot  -3.15375 -0.270906 3.01818
LeftToes  7.37594e-011 2.64622e-011 -6.25182e-011
469
root  0.66091 39.9245 -1.14828 -0.821775 5.60597 4.09489
RightUpLeg  -3.06182 -12.1128 -11.0269
RightLeg  9.18351 -12.7137 -2.67944
RightFoot  0.740981 -0.810129 6.512
RightToes  1.74624e-010 -3.18055e-015 -2.98177e-016
Spine  -6.44514 2.24507 3.6224
Spine1  5.79557 4.35259 -10.4615
HEad  2.65818 7.40164 -4.33869
LeftShoulder1  -3.88251e-019 9.70628e-020 -3.87848e-018
LeftArm  -53.6564 67.0255 -47.5354
LeftForeArm  -65.3924 -54.6357 12.4369
LeftHand  -0.79078 -0.526363 16.7532
RightShoulder  5.99763 9.39225 29.8938
RightArm  -11.311 -33.7667 6.54055
RightForeArm  -45.5199 46.93 -26.0793
RightHand  -1.34488 1.54118 -22.0203
LeftUpLeg  -1.54536 -6.15999 -9.61352
LeftLeg  5.38028 10.4929 3.37417
LeftFoot  -3.23572 -0.284844 3.20317
LeftToes  7.37594e-011 2.64622e-011 -6.25182e-011
470
root  0.800076 39.9131 -1.14601 -0.756372 6.20524 4.24701
RightUpLeg  -2.88724 -12.4124 -11.4962
RightLeg  9.16287 -12.9511 -2.68745
RightFoot  0.893577 -0.846609 6.73004
RightToes  1.74624e-010 -3.18055e-015 -2.98177e-016
Spine  -6.37716 2.27094 4.18957
Spine1  4.60298 4.45691 -11.577
HEad  5.48257 8.42755 -3.71006
LeftShoulder1  -3.88251e-019 9.70628e-020 -3.87848e-018
LeftArm  -49.6538 64.3561 -39.394
LeftForeArm  -70.5156 -58.4967 14.5156
LeftHand  -0.883331 -0.734395 17.9936
RightShoulder  5.27963 8.7623 27.1175
RightArm  -13.5621 -28.7652 6.1304
RightForeArm  -50.7208 51.4481 -30.6104
RightHand  -1.58247 2.52959 -22.6967
LeftUpLeg  -1.54931 -6.38016 -10.0044
LeftLeg  5.33641 10.1843 3.3038
LeftFoot  -3.31093 -0.303702 3.4442
LeftToes  7.37594e-011 2.64622e-011 -6.25182e-011
471
root  0.936151 39.9067 -1.13436 -0.73005 6.76937 4.34617
RightUpLeg  -2.58845 -12.4979 -11.9127
RightLeg  9.00495 -13.3828 -2.62363
RightFoot  1.0821 -0.886394 6.95092
RightToes  1.74624e-010 -3.18055e-015 -2.98177e-016
Spine  -6.38505 2.25717 4.91822
Spine1  3.62378 4.54034 -12.8416
HEad  8.26417 9.18884 -2.34665
LeftShoulder1  -3.88251e-019 9.70628e-020 -3.87848e-018
LeftArm  -46.374 61.4017 -32.267
LeftForeArm  -75.0221 -61.7986 16.7272
LeftHand  -0.863356 -0.638735 17.8709
RightShoulder  4.6115 8.10458 24.4455
RightArm  -15.565 -22.7285 5.91361
RightForeArm  -56.4356 55.7354 -36.1235
RightHand  -1.7506 3.42571 -22.5888
LeftUpLeg  -1.48227 -6.52146 -10.3127
LeftLeg  5.26226 9.82135 3.18124
LeftFoot  -3.373 -0.327762 3.74733
LeftToes  7.37594e-011 2.64622e-011 -6.25182e-011
472
root  1.0664 39.8976 -1.12539 -0.613259 7.22267 4.45747
RightUpLeg  -2.47954 -12.5859 -12.2645
RightLeg  8.92446 -13.7332 -2.64658
RightFoot  1.2391 -0.927037 7.18925
RightToes  1.74624e-010 -3.18055e-015 -2.98177e-016
Spine  -6.29177 2.35753 5.75196
Spine1  2.48109 4.70539 -14.161
HEad  11.1188 9.7251 -0.436439
LeftShoulder1  -3.88251e-019 9.70628e-020 -3.87848e-018
LeftArm  -43.8994 58.3553 -26.4526
LeftForeArm  -77.6137 -64.4322 18.9475
LeftHand  -0.848808 -0.792544 17.1257
RightShoulder  3.89031 7.34784 21.3516
RightArm  -17.1759 -16.1668 5.68728
RightForeArm  -62.0992 59.208 -41.9739
RightHand  -1.87528 4.26658 -22.1308
LeftUpLeg  -1.54438 -6.71048 -10.6314
LeftLeg  5.25672 9.60444 3.11877
LeftFoot  -3.44554 -0.351433 4.05356
LeftToes  7.37594e-011 2.64622e-011 -6.25182e-011
473
root  1.18874 39.8874 -1.12474 -0.41103 7.60435 4.53956
RightUpLeg  -2.52583 -12.6673 -12.5157
RightLeg  8.87654 -14.0405 -2.71544
RightFoot  1.40287 -0.962067 7.37513
RightToes  1.74624e-010 -3.18055e-015 -2.98177e-016
Spine  -5.76661 2.64985 6.95138
Spine1  0.746681 5.0193 -15.8708
HEad  14.0769 9.95482 1.81448
LeftShoulder1  -3.88251e-019 9.70628e-020 -3.87848e-018
LeftArm  -41.9499 55.2514 -21.9367
LeftForeArm  -79.6416 -66.5876 21.1509
LeftHand  -0.878368 -1.11737 16.7873
RightShoulder  3.01101 6.27339 17.3695
RightArm  -18.2804 -9.82717 5.46482
RightForeArm  -66.5021 61.5303 -47.0291
RightHand  -1.89643 4.87178 -21.102
LeftUpLeg  -1.73287 -6.93356 -10.9274
LeftLeg  5.28598 9.48423 3.13372
LeftFoot  -3.52558 -0.370687 4.31477
LeftToes  7.37594e-011 2.64622e-011 -6.25182e-011
474
root  1.30397 39.8816 -1.12364 -0.213755 8.01404 4.55063
RightUpLeg  -2.49129 -12.6544 -12.6887
RightLeg  8.71307 -14.4786 -2.70209
RightFoot  1.61901 -0.989325 7.46908
RightToes  1.74624e-010 -3.18055e-015 -2.98177e-016
Spine  -4.88064 3.04193 8.83633
Spine1  -1.3434 5.46072 -18.5001
HEad  16.8679 9.58479 4.23717
LeftShoulder1  -3.88251e-019 9.70628e-020 -3.87848e-018
LeftArm  -40.2838 51.9793 -18.3647
LeftForeArm  -82.3661 -68.5344 23.5011
LeftHand  -0.955132 -1.2289 17.9008
RightShoulder  2.06196 4.80097 12.8534
RightArm  -19.151 -3.88502 5.42426
RightForeArm  -67.6114 62.5489 -49.8167
RightHand  -1.79759 5.37014 -19.1404
LeftUpLeg  -1.87862 -7.06648 -11.1229
LeftLeg  5.22156 9.22892 3.09415
LeftFoot  -3.58057 -0.384693 4.50608
LeftToes  7.37594e-011 2.64622e-011 -6.25182e-011
475
root  1.41605 39.8753 -1.11658 0.00482054 8.40183 4.56954
RightUpLeg  -2.46505 -12.6887 -12.8759
RightLeg  8.54597 -14.8715 -2.64715
RightFoot  1.81595 -1.01335 7.54607
RightToes  1.74624e-010 -3.18055e-015 -2.98177e-016
Spine  -4.06377 3.4205 11.2079
Spine1  -3.23888 5.9423 -21.9185
HEad  19.2561 8.70294 6.74354
LeftShoulder1  -3.88251e-019 9.70628e-020 -3.87848e-018
LeftArm  -39.0229 48.5586 -15.2328
LeftForeArm  -84.4563 -70.3587 26.2118
LeftHand  -1.12606 -1.41273 20.4168
RightShoulder  1.22971 3.14946 8.52867
RightArm  -20.2634 2.1203 5.72469
RightForeArm  -63.4472 62.1336 -49.0905
RightHand  -1.70431 6.15392 -16.9877
LeftUpLeg  -2.00126 -7.14928 -11.2898
LeftLeg  5.09843 8.91471 2.97981
LeftFoot  -3.6159 -0.391669 4.60387
LeftToes  7.37594e-011 2.64622e-011 -6.25182e-011
476
root  1.52443 39.8601 -1.11278 0.336747 8.60769 4.68804
RightUpLeg  -2.74517 -12.9802 -13.1221
RightLeg  8.61025 -14.86 -2.69068
RightFoot  1.90025 -1.03712 7.67955
RightToes  1.74624e-010 -3.18055e-015 -2.98177e-016
Spine  -3.47763 3.78127 13.4345
Spine1  -4.87859 6.36779 -25.2994
HEad  21.2784 7.77847 9.35148
LeftShoulder1  -3.88251e-019 9.70628e-020 -3.87848e-018
LeftArm  -38.5409 45.2213 -12.2825
LeftForeArm  -84.9677 -72.1247 29.5773
LeftHand  -1.41026 -2.08114 23.0975
RightShoulder  0.57207 1.53439 4.5788
RightArm  -21.761 8.43785 6.56412
RightForeArm  -54.3063 60.2385 -45.1401
RightHand  -1.786 7.13092 -16.4216
LeftUpLeg  -2.28773 -7.34524 -11.5554
LeftLeg  5.09315 8.87451 2.93771
LeftFoot  -3.68671 -0.390112 4.6195
LeftToes  7.37594e-011 2.64622e-011 -6.25182e-011
477
root  1.62133 39.8392 -1.11923 0.708378 8.59835 4.85991
RightUpLeg  -3.25938 -13.4323 -13.3664
RightLeg  8.84797 -14.4702 -2.8172
RightFoot  1.9102 -1.05624 7.81727
RightToes  1.74624e-010 -3.18055e-015 -2.98177e-016
Spine  -2.89527 4.14351 15.1374
Spine1  -6.51398 6.67147 -28.0401
HEad  23.0617 6.93782 12.0743
LeftShoulder1  -3.88251e-019 9.70628e-020 -3.87848e-018
LeftArm  -39.0038 42.1606 -9.62794
LeftForeArm  -86.2205 -74.0574 34.3073
LeftHand  -1.74096 -3.06465 24.9768
RightShoulder  0.0506492 -0.062342 0.864002
RightArm  -23.3887 14.7871 8.10287
RightForeArm  -43.4853 57.2103 -39.8936
RightHand  -2.01717 7.62342 -17.8359
LeftUpLeg  -2.69749 -7.61837 -11.8735
LeftLeg  5.23166 9.14098 2.99881
LeftFoot  -3.82388 -0.385423 4.62578
LeftToes  7.37594e-011 2.64622e-011 -6.25182e-011
478
root  1.70305 39.8234 -1.12654 0.915437 8.48895 4.97948
RightUpLeg  -3.59597 -13.7378 -13.5582
RightLeg  8.98198 -14.0698 -2.88501
RightFoot  1.95198 -1.06515 7.86098
RightToes  1.74624e-010 -3.18055e-015 -2.98177e-016
Spine  -2.22199 4.47455 16.3754
Spine1  -8.02019 6.87591 -30.1284
HEad  24.6204 5.8927 14.7699
LeftShoulder1  -3.88251e-019 9.70628e-020 -3.87848e-018
LeftArm  -40.1377 39.3678 -7.39134
LeftForeArm  -91.4574 -76.2863 41.7216
LeftHand  -2.05066 -4.00362 26.2851
RightShoulder  -0.336655 -1.6176 -2.43479
RightArm  -25.0143 20.7823 10.1319
RightForeArm  -34.6612 53.9154 -35.2523
RightHand  -2.16902 7.515 -19.3003
LeftUpLeg  -2.93524 -7.75631 -12.1008
LeftLeg  5.35068 9.40864 3.00846
LeftFoot  -3.99125 -0.383749 4.68445
LeftToes  7.37594e-011 2.64622e-011 -6.25182e-011
479
root  1.77703 39.8138 -1.12617 0.905284 8.32674 5.04704
RightUpLeg  -3.63846 -13.83 -13.7341
RightLeg  8.96008 -13.7716 -2.87903
RightFoot  2.03701 -1.06554 7.81734
RightToes  1.74624e-010 -3.18055e-015 -2.98177e-016
Spine  -1.64224 4.7592 17.2532
Spine1  -9.04797 7.07546 -31.6845
HEad  25.8786 4.6171 17.1985
LeftShoulder1  -3.88251e-019 9.70628e-020 -3.87848e-018
LeftArm  -41.5122 36.7788 -5.39447
LeftForeArm  -102.091 -78.5201 53.5986
LeftHand  -2.37069 -4.78931 27.8643
RightShoulder  -0.584116 -2.92522 -5.05479
RightArm  -26.9169 26.1771 12.2433
RightForeArm  -29.1937 51.285 -32.0968
RightHand  -2.16522 7.50108 -19.2853
LeftUpLeg  -2.88969 -7.72941 -12.2452
LeftLeg  5.37205 9.5824 2.90838
LeftFoot  -4.13754 -0.385416 4.77732
LeftToes  7.37594e-011 2.64622e-011 -6.25182e-011
480
root  1.85073 39.8015 -1.12903 0.827885 8.0279 5.1379
RightUpLeg  -3.71375 -13.92 -13.9162
RightLeg  8.99999 -13.3282 -2.93893
RightFoot  2.09962 -1.06634 7.78937
RightToes  1.74624e-010 -3.18055e-015 -2.98177e-016
Spine  -1.25626 5.03734 17.7682
Spine1  -9.58358 7.32987 -32.6988
HEad  26.7705 3.40718 19.2497
LeftShoulder1  -3.88251e-019 9.70628e-020 -3.87848e-018
LeftArm  -42.8522 34.4127 -3.40546
LeftForeArm  -118.611 -80.1607 71.5319
LeftHand  -2.79195 -5.52748 30.3652
RightShoulder  -0.733064 -3.90897 -7.10354
RightArm  -29.3057 30.8263 14.3406
RightForeArm  -26.3855 49.8735 -30.5817
RightHand  -2.12942 7.90134 -18.425
LeftUpLeg  -2.78539 -7.73155 -12.4333
LeftLeg  5.40853 9.90972 2.84459
LeftFoot  -4.25702 -0.386809 4.85591
LeftToes  7.37594e-011 2.64622e-011 -6.25182e-011
